<svg width="40" height="40" viewBox="0 0 40 40" fill="none" xmlns="http://www.w3.org/2000/svg">
<path d="M19.9998 13.3337C18.6813 13.3337 17.3924 13.7247 16.296 14.4572C15.1997 15.1897 14.3452 16.2309 13.8406 17.4491C13.3361 18.6673 13.204 20.0077 13.4613 21.3009C13.7185 22.5941 14.3534 23.782 15.2858 24.7144C16.2181 25.6467 17.406 26.2817 18.6992 26.5389C19.9924 26.7961 21.3329 26.6641 22.5511 26.1595C23.7692 25.6549 24.8104 24.8005 25.543 23.7041C26.2755 22.6078 26.6665 21.3189 26.6665 20.0003C26.6665 18.2322 25.9641 16.5365 24.7139 15.2863C23.4636 14.036 21.7679 13.3337 19.9998 13.3337ZM19.9998 23.3337C19.3406 23.3337 18.6961 23.1382 18.1479 22.7719C17.5998 22.4056 17.1725 21.885 16.9202 21.2759C16.6679 20.6668 16.6019 19.9966 16.7306 19.35C16.8592 18.7034 17.1766 18.1095 17.6428 17.6433C18.109 17.1771 18.7029 16.8597 19.3495 16.731C19.9961 16.6024 20.6664 16.6684 21.2754 16.9207C21.8845 17.173 22.4051 17.6003 22.7714 18.1484C23.1377 18.6966 23.3332 19.3411 23.3332 20.0003C23.3332 20.8844 22.982 21.7322 22.3569 22.3573C21.7317 22.9825 20.8839 23.3337 19.9998 23.3337ZM34.9832 15.0003H32.3582C32.3448 14.9637 32.2982 14.822 32.2815 14.7853L34.1315 12.9353C34.759 12.3069 35.1115 11.4551 35.1115 10.567C35.1115 9.67888 34.759 8.82708 34.1315 8.19866L31.7982 5.86532C31.4876 5.55378 31.1184 5.30679 30.712 5.13859C30.3055 4.9704 29.8697 4.88432 29.4298 4.88533C28.9905 4.88476 28.5554 4.97105 28.1495 5.13923C27.7436 5.30742 27.375 5.55418 27.0648 5.86532L25.1165 7.68699L24.9998 7.63366V5.01533C24.999 4.12727 24.6457 3.27587 24.0176 2.64808C23.3895 2.02029 22.5379 1.66743 21.6498 1.66699H18.3498C17.4618 1.66743 16.6102 2.02029 15.9821 2.64808C15.354 3.27587 15.0007 4.12727 14.9998 5.01533V7.61032L14.8565 7.69199L14.7848 7.71866L12.9415 5.87033C12.6313 5.55868 12.2624 5.3115 11.8563 5.14302C11.4501 4.97454 11.0146 4.88809 10.5748 4.88866C10.1349 4.88765 9.69919 4.97373 9.29271 5.14193C8.88624 5.31012 8.51707 5.55711 8.2065 5.86866L5.87317 8.20199C5.24562 8.83042 4.89314 9.68222 4.89314 10.5703C4.89314 11.4584 5.24562 12.3102 5.87317 12.9387L7.7065 14.8437C7.68484 14.892 7.6515 14.9487 7.63484 14.9987H5.0165C4.12816 14.9991 3.27633 15.3522 2.64818 15.9803C2.02003 16.6085 1.66695 17.4603 1.6665 18.3487V21.652C1.66739 22.54 2.02067 23.3914 2.64877 24.0192C3.27688 24.647 4.12845 24.9999 5.0165 25.0003H7.6415C7.65484 25.037 7.7015 25.1787 7.71817 25.2153L5.86817 27.0653C5.24062 27.6937 4.88814 28.5455 4.88814 29.4337C4.88814 30.3218 5.24062 31.1736 5.86817 31.802L8.2015 34.1353C8.83976 34.744 9.68787 35.0836 10.5698 35.0836C11.4518 35.0836 12.2999 34.744 12.9382 34.1353L14.7965 32.277C14.8332 32.2953 14.9632 32.3553 14.9982 32.3703V34.9887C14.9999 35.8764 15.3538 36.7272 15.9822 37.3543C16.6106 37.9815 17.4621 38.3337 18.3498 38.3337H21.6498C22.5379 38.3332 23.3895 37.9804 24.0176 37.3526C24.6457 36.7248 24.999 35.8734 24.9998 34.9853V32.3903L25.2148 32.282L27.0632 34.1303C27.7013 34.7399 28.5498 35.08 29.4323 35.08C30.3148 35.08 31.1634 34.7399 31.8015 34.1303L34.1348 31.797C34.7624 31.1686 35.1149 30.3168 35.1149 29.4287C35.1149 28.5405 34.7624 27.6887 34.1348 27.0603L32.3015 25.1553C32.3232 25.107 32.3565 25.0503 32.3732 25.0003H34.9832C35.8712 24.9999 36.7228 24.647 37.3509 24.0192C37.979 23.3914 38.3323 22.54 38.3332 21.652V18.3487C38.3323 17.4606 37.979 16.6092 37.3509 15.9814C36.7228 15.3536 35.8712 15.0008 34.9832 15.0003ZM34.9832 21.667H32.3682C31.6937 21.6868 31.0393 21.9012 30.4838 22.2843C29.9283 22.6674 29.4955 23.2029 29.2373 23.8263C28.9791 24.4498 28.9066 25.1345 29.0286 25.7982C29.1506 26.4619 29.4618 27.0761 29.9248 27.567L31.7732 29.4403L29.4165 31.7737L27.5665 29.9253C27.0757 29.4624 26.4616 29.1512 25.7981 29.0292C25.1346 28.9071 24.45 28.9794 23.8266 29.2374C23.2032 29.4954 22.6677 29.928 22.2844 30.4833C21.9012 31.0385 21.6866 31.6926 21.6665 32.367L21.6498 35.0003L18.3332 34.9853V32.367C18.3249 31.6866 18.1129 31.0243 17.7247 30.4655C17.3364 29.9067 16.7896 29.4771 16.1548 29.232C15.7238 29.0527 15.2617 28.9598 14.7948 28.9587C14.357 28.9568 13.9231 29.0412 13.5178 29.207C13.1126 29.3729 12.744 29.617 12.4332 29.9253L10.5598 31.7737L8.2265 29.417L10.0732 27.5703C10.5371 27.0797 10.8493 26.4653 10.9719 25.8012C11.0946 25.1372 11.0225 24.4518 10.7644 23.8278C10.5063 23.2038 10.0732 22.6678 9.51733 22.2844C8.96144 21.901 8.30651 21.6865 7.6315 21.667L4.99984 21.652L5.0165 18.3337H7.6315C8.30599 18.3138 8.96037 18.0995 9.51585 17.7164C10.0713 17.3333 10.5042 16.7977 10.7624 16.1743C11.0206 15.5509 11.093 14.8661 10.971 14.2024C10.8491 13.5388 10.5378 12.9245 10.0748 12.4337L8.2265 10.5603L10.5832 8.22699L12.4332 10.0753C12.9135 10.5456 13.5225 10.863 14.1831 10.9873C14.8438 11.1116 15.5264 11.0372 16.1448 10.7737L16.1748 10.762C16.8052 10.5147 17.3474 10.0849 17.7319 9.52756C18.1165 8.97022 18.3258 8.31074 18.3332 7.63366L18.3498 5.00033L21.6665 5.01533V7.63366C21.6664 8.2907 21.8604 8.93313 22.2243 9.48024C22.5881 10.0273 23.1055 10.4547 23.7115 10.7087C23.7548 10.7303 23.8065 10.7537 23.8565 10.7737C24.4746 11.0373 25.1571 11.1117 25.8175 10.9874C26.4779 10.8631 27.0865 10.5457 27.5665 10.0753L29.4398 8.22699L31.7732 10.5837L29.9265 12.4303C29.4625 12.921 29.1504 13.5354 29.0277 14.1994C28.9051 14.8635 28.9771 15.5488 29.2352 16.1728C29.4933 16.7969 29.9265 17.3329 30.4823 17.7163C31.0382 18.0997 31.6932 18.3141 32.3682 18.3337H34.9832L34.9998 18.3487L34.9832 21.667Z" fill="#F8F8FC"/>
</svg>
